<svg xmlns="http://www.w3.org/2000/svg" width="1540" height="1040" viewBox="0 0 1540 1040" font-family="Apple SD Gothic Neo, Noto Sans KR, Malgun Gothic, sans-serif">
<defs>
  <marker id="ah" markerWidth="9" markerHeight="9" refX="7" refY="4.5" orient="auto"><path d="M0,0 L9,4.5 L0,9 z" fill="#B7A891"/></marker>
  <marker id="ahm" markerWidth="9" markerHeight="9" refX="7" refY="4.5" orient="auto"><path d="M0,0 L9,4.5 L0,9 z" fill="#C99A63"/></marker>
</defs>
<rect width="1540" height="1040" fill="#FAF7F2"/>

<text x="40" y="44" font-size="26" font-weight="800" fill="#2C2620">BrewNote 시스템 구성도 (수정판)</text>
<text x="40" y="68" font-size="13" fill="#6F6357">카페 통합 플랫폼 · Expo(RN) 앱 + FastAPI(Cloud Run) + Gemini 멀티에이전트 · 2026-08-14</text>

<!-- 범례 -->
<rect x="1240" y="18" width="270" height="54" rx="10" fill="#FFFFFF" stroke="#E6DCCD" stroke-width="1.5"/>
<line x1="1256" y1="37" x2="1284" y2="37" stroke="#B7A891" stroke-width="2" marker-end="url(#ah)"/>
<text x="1298" y="41" font-size="11" fill="#6F6357">자동 · 네트워크 흐름</text>
<line x1="1256" y1="58" x2="1284" y2="58" stroke="#C99A63" stroke-width="2" stroke-dasharray="5 4" marker-end="url(#ahm)"/>
<text x="1298" y="62" font-size="11" fill="#6F6357">수동 실행 · 컨테이너 내부</text>

<!-- 01 클라이언트 -->
<rect x="40" y="100" width="300" height="360" rx="12" fill="#FFFFFF" stroke="#E6DCCD" stroke-width="1.5"/>
<text x="52" y="124" font-size="13" font-weight="700" fill="#3D6B32">01 클라이언트 (Client)</text>

<rect x="50" y="134" width="280" height="96" rx="9" fill="#F0F7EA" stroke="#C3DCB2" stroke-width="1.2"/>
<text x="62" y="158" font-size="12.5" font-weight="700" fill="#3D6B32">웹 앱 (Expo Web)</text>
<text x="62" y="178" font-size="11" fill="#6F6357">· Cloud Run · brewnote-web</text>
<text x="62" y="196" font-size="11" fill="#6F6357">· 브라우저 접속 · 정적 번들</text>
<text x="62" y="214" font-size="11" fill="#A62F45">· 푸시 알림 미지원 — 코드로 차단</text>

<rect x="50" y="240" width="280" height="100" rx="9" fill="#F0F7EA" stroke="#C3DCB2" stroke-width="1.2"/>
<text x="62" y="264" font-size="12.5" font-weight="700" fill="#3D6B32">Android 앱 (Expo RN)</text>
<text x="62" y="284" font-size="11" fill="#6F6357">· EAS 빌드(AAB) · Play 배포 — 수동</text>
<text x="62" y="302" font-size="11" fill="#6F6357">· FCM 푸시 수신 (서버가 발송)</text>
<text x="62" y="320" font-size="11" fill="#6F6357">· OTA 업데이트 수신 (eas update)</text>

<rect x="50" y="350" width="280" height="100" rx="9" fill="#F0F7EA" stroke="#C3DCB2" stroke-width="1.2"/>
<text x="62" y="374" font-size="12.5" font-weight="700" fill="#3D6B32">관리자 콘솔 /console</text>
<text x="62" y="394" font-size="11" fill="#A62F45">· 별도 Cloud Run 배포가 아니다</text>
<text x="62" y="412" font-size="11" fill="#6F6357">· brewnote-api 안에 마운트된 정적 페이지</text>
<text x="62" y="430" font-size="11" fill="#6F6357">· 백엔드 배포에 같이 실려 나간다</text>

<!-- 인증 (이중 체계) -->
<rect x="356" y="170" width="160" height="224" rx="10" fill="#E8F6F5" stroke="#A9D8D6" stroke-width="1.4"/>
<text x="436" y="196" font-size="12.5" font-weight="700" text-anchor="middle" fill="#1C6B68">인증 — 이중 체계</text>
<text x="436" y="222" font-size="11" font-weight="700" text-anchor="middle" fill="#1C6B68">이메일·비밀번호</text>
<text x="436" y="240" font-size="10.5" text-anchor="middle" fill="#6F6357">bcrypt 해싱 + 자체 JWT</text>
<line x1="370" y1="256" x2="502" y2="256" stroke="#A9D8D6" stroke-width="1"/>
<text x="436" y="278" font-size="11" font-weight="700" text-anchor="middle" fill="#1C6B68">구글 소셜 로그인</text>
<text x="436" y="296" font-size="10.5" text-anchor="middle" fill="#6F6357">Firebase ID 토큰</text>
<text x="436" y="312" font-size="10.5" text-anchor="middle" fill="#6F6357">RS256 공개키 검증</text>
<line x1="370" y1="328" x2="502" y2="328" stroke="#A9D8D6" stroke-width="1"/>
<text x="436" y="350" font-size="10.5" text-anchor="middle" fill="#1C6B68">검증은 모두 백엔드가</text>
<text x="436" y="366" font-size="10.5" text-anchor="middle" fill="#1C6B68">직접 수행한다</text>

<line x1="342" y1="282" x2="352" y2="282" stroke="#B7A891" stroke-width="2" marker-end="url(#ah)"/>
<line x1="518" y1="282" x2="528" y2="282" stroke="#B7A891" stroke-width="2" marker-end="url(#ah)"/>

<!-- 클라이언트 → 백엔드 REST (인증 이후 일반 호출) -->
<line x1="342" y1="430" x2="528" y2="430" stroke="#B7A891" stroke-width="1.6" marker-end="url(#ah)"/>
<text x="436" y="424" font-size="10" text-anchor="middle" fill="#6F6357">REST API 호출 (토큰 첨부)</text>

<!-- 02 백엔드 -->
<rect x="532" y="100" width="440" height="600" rx="12" fill="#FFFFFF" stroke="#E6DCCD" stroke-width="1.5"/>
<text x="548" y="124" font-size="13" font-weight="700" fill="#1E4E8C">02 백엔드 (Backend) — Cloud Run · brewnote-api</text>

<rect x="544" y="134" width="416" height="78" rx="9" fill="#EAF2FF" stroke="#B8D0F0" stroke-width="1.2"/>
<text x="556" y="158" font-size="12.5" font-weight="700" fill="#1E4E8C">FastAPI 단일 서비스</text>
<text x="556" y="178" font-size="11" fill="#6F6357">· asia-northeast3 · 2Gi RAM · 1 vCPU · min-instances 1</text>
<text x="556" y="196" font-size="11" fill="#6F6357">· REST API (/api/v1) · 정적 마운트 (/console·/legal·/map)</text>

<rect x="544" y="222" width="416" height="196" rx="9" fill="#EAF2FF" stroke="#B8D0F0" stroke-width="1.2"/>
<text x="556" y="246" font-size="12.5" font-weight="700" fill="#1E4E8C">주요 서비스</text>
<text x="556" y="266" font-size="11" fill="#6F6357">· AI 에이전트 '브루' — Gemini 멀티에이전트 챗봇</text>
<text x="556" y="284" font-size="11" fill="#6F6357">   금전 액션(발주·지급·신고)은 초안(draft)만 만든다</text>
<text x="556" y="302" font-size="11" fill="#6F6357">· OCR — Gemini (영수증·거래명세서 → 재고·장부 반영)</text>
<text x="556" y="320" font-size="11" fill="#6F6357">· TTS — Gemini 보이스 4종 · WAV 캐시 · 분당 3회 제한</text>
<text x="556" y="338" font-size="11" fill="#6F6357">· 홍보 이미지 — Pollinations 생성 · GCS 보관</text>
<text x="556" y="356" font-size="11" fill="#6F6357">· Square 웹훅 수신 — 실시간 매출 반영 (서명 검증)</text>
<text x="556" y="374" font-size="11" fill="#6F6357">· 관리자 콘솔 /console — 정적 파일 서빙</text>
<text x="556" y="392" font-size="11" fill="#6F6357">· 리포트·예측·손익분기·게임화(코인) 서비스</text>

<rect x="544" y="428" width="416" height="120" rx="9" fill="#EAF2FF" stroke="#B8D0F0" stroke-width="1.2"/>
<text x="556" y="452" font-size="12.5" font-weight="700" fill="#1E4E8C">백그라운드 작업</text>
<text x="556" y="472" font-size="11" fill="#6F6357">· 원두 시세 스냅샷 — 6시간 간격 (하루 1회 기록)</text>
<text x="556" y="490" font-size="11" fill="#6F6357">· 행사 캐시 — 매일 새벽(4시 KST 이후) 갱신</text>
<text x="556" y="508" font-size="11" fill="#6F6357">· DB 자가치유 — 기동 시 1회</text>
<text x="556" y="526" font-size="11" fill="#A62F45">· POS 자동 폴링 — 기본 꺼짐 (실시간은 웹훅 담당)</text>

<rect x="544" y="558" width="416" height="126" rx="9" fill="#EAF2FF" stroke="#B8D0F0" stroke-width="1.2"/>
<text x="556" y="582" font-size="12.5" font-weight="700" fill="#1E4E8C">GCP 공통</text>
<text x="556" y="602" font-size="11" fill="#6F6357">· Secret Manager — fcm-sa 키 (FCM 푸시 발송용)</text>
<text x="556" y="620" font-size="11" fill="#6F6357">· Cloud Logging — stdout 자동 수집 (GCP에 저장)</text>
<text x="556" y="638" font-size="11" fill="#6F6357">· 정기 작업 엔드포인트 — CRON_SECRET 보호</text>
<text x="556" y="656" font-size="11" fill="#6F6357">   (Cloud Scheduler 등 외부 크론이 호출: POS·알림)</text>

<!-- 03 데이터 -->
<rect x="1000" y="100" width="230" height="600" rx="12" fill="#FFFFFF" stroke="#E6DCCD" stroke-width="1.5"/>
<text x="1012" y="124" font-size="13" font-weight="700" fill="#573BA5">03 데이터 (Data)</text>

<rect x="1010" y="134" width="210" height="100" rx="9" fill="#F4EEFF" stroke="#CFC0EE" stroke-width="1.2"/>
<text x="1022" y="158" font-size="12.5" font-weight="700" fill="#573BA5">Neon PostgreSQL</text>
<text x="1022" y="178" font-size="11" fill="#6F6357">· SSL 연결 (sslmode=require)</text>
<text x="1022" y="196" font-size="11" fill="#6F6357">· 재고·매출·원장·문서·회원</text>
<text x="1022" y="214" font-size="11" fill="#6F6357">· 유일한 영구 저장소</text>

<rect x="1010" y="244" width="210" height="100" rx="9" fill="#F4EEFF" stroke="#CFC0EE" stroke-width="1.2"/>
<text x="1022" y="268" font-size="12.5" font-weight="700" fill="#573BA5">GCS 버킷</text>
<text x="1022" y="288" font-size="11" fill="#6F6357">· 홍보 이미지 영구 보관</text>
<text x="1022" y="306" font-size="11" fill="#6F6357">· 선택적 — 버킷 미설정이면</text>
<text x="1022" y="324" font-size="11" fill="#6F6357">   로컬 디스크로 폴백</text>

<rect x="1010" y="354" width="210" height="140" rx="9" fill="#F4EEFF" stroke="#CFC0EE" stroke-width="1.2"/>
<text x="1022" y="378" font-size="12.5" font-weight="700" fill="#573BA5">컨테이너 로컬 디스크</text>
<text x="1022" y="398" font-size="11" fill="#A62F45">· 휘발성 — 배포마다 초기화</text>
<text x="1022" y="416" font-size="11" fill="#6F6357">· 업로드 파일 · TTS 캐시</text>
<text x="1022" y="434" font-size="11" fill="#6F6357">· Chroma 벡터 인덱스</text>
<text x="1022" y="452" font-size="11" fill="#6F6357">   (라이브러리 — 별도 서비스 아님)</text>
<text x="1022" y="470" font-size="11" fill="#6F6357">· 홍보 이미지 폴백 저장</text>

<rect x="1010" y="504" width="210" height="82" rx="9" fill="#FFEDF0" stroke="#F2BFC6" stroke-width="1.2"/>
<text x="1022" y="528" font-size="12" font-weight="700" fill="#A62F45">⚠ 휘발성 주의</text>
<text x="1022" y="548" font-size="10.5" fill="#6F6357">Chroma 인덱스·캐시는 새 배포에서</text>
<text x="1022" y="564" font-size="10.5" fill="#6F6357">비워진다 — 재색인으로 복구</text>

<!-- 백엔드 ↔ 데이터 -->
<line x1="974" y1="184" x2="996" y2="184" stroke="#B7A891" stroke-width="2" marker-end="url(#ah)"/>
<line x1="996" y1="204" x2="974" y2="204" stroke="#B7A891" stroke-width="2" marker-end="url(#ah)"/>
<line x1="974" y1="294" x2="996" y2="294" stroke="#B7A891" stroke-width="2" marker-end="url(#ah)"/>
<line x1="974" y1="424" x2="996" y2="424" stroke="#C99A63" stroke-width="1.8" stroke-dasharray="5 4" marker-end="url(#ahm)"/>

<!-- 04 외부 API -->
<rect x="1246" y="100" width="264" height="600" rx="12" fill="#FFFFFF" stroke="#E6DCCD" stroke-width="1.5"/>
<text x="1258" y="124" font-size="13" font-weight="700" fill="#A25711">04 외부 API (External)</text>

<rect x="1256" y="134" width="244" height="54" rx="9" fill="#FFF2E6" stroke="#F0C9A0" stroke-width="1.2"/>
<text x="1268" y="156" font-size="12" font-weight="700" fill="#A25711">Google Gemini</text>
<text x="1268" y="174" font-size="10.5" fill="#6F6357">챗봇 · OCR · 리포트 · TTS</text>

<rect x="1256" y="194" width="244" height="54" rx="9" fill="#FFF2E6" stroke="#F0C9A0" stroke-width="1.2"/>
<text x="1268" y="216" font-size="12" font-weight="700" fill="#A25711">Firebase</text>
<text x="1268" y="234" font-size="10.5" fill="#6F6357">ID 토큰 검증 · FCM 발송 → Android</text>

<rect x="1256" y="254" width="244" height="54" rx="9" fill="#FFF2E6" stroke="#F0C9A0" stroke-width="1.2"/>
<text x="1268" y="276" font-size="12" font-weight="700" fill="#A25711">Square POS</text>
<text x="1268" y="294" font-size="10.5" fill="#6F6357">실시간 웹훅 · 매출 동기화</text>

<rect x="1256" y="314" width="244" height="54" rx="9" fill="#FFF2E6" stroke="#F0C9A0" stroke-width="1.2"/>
<text x="1268" y="336" font-size="12" font-weight="700" fill="#A25711">Pollinations</text>
<text x="1268" y="354" font-size="10.5" fill="#6F6357">홍보 이미지 생성</text>

<rect x="1256" y="374" width="244" height="54" rx="9" fill="#FFF2E6" stroke="#F0C9A0" stroke-width="1.2"/>
<text x="1268" y="396" font-size="12" font-weight="700" fill="#A25711">네이버 오픈 API / Maps</text>
<text x="1268" y="414" font-size="10.5" fill="#6F6357">리뷰 검색(서버) · 지도(앱이 직접 호출)</text>

<rect x="1256" y="434" width="244" height="54" rx="9" fill="#FFF2E6" stroke="#F0C9A0" stroke-width="1.2"/>
<text x="1268" y="456" font-size="12" font-weight="700" fill="#A25711">Tavily</text>
<text x="1268" y="474" font-size="10.5" fill="#6F6357">웹 검색 (챗봇 도구)</text>

<rect x="1256" y="494" width="244" height="54" rx="9" fill="#FFF2E6" stroke="#F0C9A0" stroke-width="1.2"/>
<text x="1268" y="516" font-size="12" font-weight="700" fill="#A25711">TourAPI · 서울열린데이터</text>
<text x="1268" y="534" font-size="10.5" fill="#6F6357">축제·문화행사 (수요 예측 입력)</text>

<rect x="1256" y="554" width="244" height="54" rx="9" fill="#FFF2E6" stroke="#F0C9A0" stroke-width="1.2"/>
<text x="1268" y="576" font-size="12" font-weight="700" fill="#A25711">Open-Meteo</text>
<text x="1268" y="594" font-size="10.5" fill="#6F6357">날씨 (수요 예측 입력)</text>

<!-- 백엔드 → 외부 API (위로 우회) -->
<polyline points="752,100 752,86 1378,86 1378,96" fill="none" stroke="#B7A891" stroke-width="1.8" marker-end="url(#ah)"/>
<text x="1065" y="80" font-size="10.5" text-anchor="middle" fill="#6F6357">REST 호출 (키는 env.yaml · Secret)</text>

<!-- CI/CD 요약 -->
<rect x="40" y="724" width="1470" height="280" rx="12" fill="#FFFFFF" stroke="#E6DCCD" stroke-width="1.5"/>
<text x="58" y="748" font-size="13" font-weight="700" fill="#8A6A45">CI/CD 배포 흐름 — 한 소스에서 세 갈래 (자동 2 · 수동 1) · 자세한 판: 배포흐름_CICD_2026-08-13.svg</text>

<rect x="60" y="766" width="150" height="60" rx="9" fill="#F5F2EC" stroke="#D9CDBB" stroke-width="1.2"/>
<text x="135" y="791" font-size="12" font-weight="700" text-anchor="middle" fill="#665741">커밋 · git push</text>
<text x="135" y="809" font-size="10.5" text-anchor="middle" fill="#6F6357">main 직접 push</text>
<line x1="212" y1="796" x2="236" y2="796" stroke="#B7A891" stroke-width="2" marker-end="url(#ah)"/>

<rect x="240" y="766" width="250" height="60" rx="9" fill="#F0F7EA" stroke="#C3DCB2" stroke-width="1.2"/>
<text x="365" y="791" font-size="12" font-weight="700" text-anchor="middle" fill="#3D6B32">검사 — pre-push 훅 · CI</text>
<text x="365" y="809" font-size="10.5" text-anchor="middle" fill="#6F6357">배포는 배포 잡 안의 게이트가 최종 차단</text>

<line x1="492" y1="796" x2="510" y2="796" stroke="#B7A891" stroke-width="2"/>
<line x1="510" y1="796" x2="510" y2="866" stroke="#B7A891" stroke-width="2"/>
<line x1="510" y1="796" x2="526" y2="796" stroke="#B7A891" stroke-width="2" marker-end="url(#ah)"/>
<line x1="510" y1="866" x2="526" y2="866" stroke="#B7A891" stroke-width="2" marker-end="url(#ah)"/>

<rect x="530" y="766" width="560" height="60" rx="9" fill="#EAF2FF" stroke="#B8D0F0" stroke-width="1.2"/>
<text x="544" y="791" font-size="12" font-weight="700" fill="#1E4E8C">① backend/** 변경 → 자동</text>
<text x="544" y="809" font-size="10.5" fill="#6F6357">alembic 마이그레이션 → Cloud Run brewnote-api 배포 → /health 스모크 테스트</text>

<rect x="530" y="836" width="560" height="60" rx="9" fill="#E8F6F5" stroke="#A9D8D6" stroke-width="1.2"/>
<text x="544" y="861" font-size="12" font-weight="700" fill="#1C6B68">② frontend/** 변경 → 자동</text>
<text x="544" y="879" font-size="10.5" fill="#6F6357">백엔드 URL을 번들에 주입 → Cloud Run brewnote-web 배포 → 200 확인</text>

<!-- ③ 수동 레인 — 커밋에서 곧장 갈라진다 (검사·배포 파이프라인을 거치지 않으므로 점선) -->
<rect x="530" y="906" width="560" height="60" rx="9" fill="#FFF2E6" stroke="#F0C9A0" stroke-width="1.4" stroke-dasharray="6 4"/>
<text x="544" y="931" font-size="12" font-weight="700" fill="#A25711">③ 안드로이드 앱 → 수동 (파이프라인 밖)</text>
<text x="544" y="949" font-size="10.5" fill="#6F6357">eas build --profile production → AAB → Play  ·  eas update → OTA (JS·에셋만)</text>

<rect x="1120" y="766" width="370" height="200" rx="9" fill="#FFEDF0" stroke="#F2BFC6" stroke-width="1.2"/>
<text x="1134" y="791" font-size="12" font-weight="700" fill="#A62F45">⚠ 앱은 push로 갱신되지 않는다</text>
<text x="1134" y="815" font-size="10.5" fill="#6F6357">· main push → 서버·웹만 최신이 된다</text>
<text x="1134" y="835" font-size="10.5" fill="#6F6357">· ③은 사람이 eas CLI를 직접 실행해야 나간다</text>
<text x="1134" y="855" font-size="10.5" fill="#6F6357">· 백엔드 URL이 바뀌면 eas.json도 고쳐 재빌드</text>
<text x="1134" y="875" font-size="10.5" fill="#6F6357">· 네이티브 모듈·권한 변경은 새 빌드가 필수</text>
<text x="1134" y="895" font-size="10.5" fill="#6F6357">· OTA는 JS만 — 빌드를 거치지 않는 별도 명령</text>

<polyline points="135,828 135,936 526,936" fill="none" stroke="#C99A63" stroke-width="1.8" stroke-dasharray="5 4" marker-end="url(#ahm)"/>
<text x="330" y="928" font-size="10.5" text-anchor="middle" fill="#A25711">같은 소스 — 검사·배포 파이프라인을 거치지 않는다</text>
</svg>
